<svg xmlns="http://www.w3.org/2000/svg" viewBox="0 0 65 65"><defs><style>.cls-1{fill:#085cb7;}.cls-2{fill:#fff;}</style></defs><g id="base"><path class="cls-1" d="M32.5,0A32.5,32.5,0,1,0,65,32.5,32.5,32.5,0,0,0,32.5,0Zm0,64A31.5,31.5,0,1,1,64,32.5,31.5,31.5,0,0,1,32.5,64Z"/><circle class="cls-1" cx="32.5" cy="32.5" r="28.5"/></g><g id="Layer_3" data-name="Layer 3"><path class="cls-2" d="M42.83,40v7.06a.56.56,0,0,1-.56.56H17.68a.56.56,0,0,1-.56-.56V14.68a.56.56,0,0,1,.56-.56H36.12v6.15a.57.57,0,0,0,.56.56h6.15v8l.08-.14h0l.05-.1,1-1.82V20.27a.59.59,0,0,0-.16-.4l-6.71-6.71a.59.59,0,0,0-.4-.16h-19A1.68,1.68,0,0,0,16,14.68V47.09a1.68,1.68,0,0,0,1.68,1.68H42.27A1.68,1.68,0,0,0,44,47.09V38l-.84,1.55ZM37.24,14.91l4.8,4.8h-4.8Z"/><path class="cls-2" d="M21,20.85H32.21a.56.56,0,0,0,0-1.12H21a.56.56,0,0,0,0,1.12Z"/><path class="cls-2" d="M38.92,23.08H21a.56.56,0,1,0,0,1.12H38.92a.56.56,0,1,0,0-1.12Z"/><path class="cls-2" d="M38.92,26.44H21a.56.56,0,1,0,0,1.11H38.92a.56.56,0,1,0,0-1.11Z"/><path class="cls-2" d="M39.48,30.35a.56.56,0,0,0-.56-.56H21a.56.56,0,1,0,0,1.12H38.92A.56.56,0,0,0,39.48,30.35Z"/><path class="cls-2" d="M21,33.14a.56.56,0,1,0,0,1.12H32.49a.56.56,0,1,0,0-1.12Z"/><path class="cls-2" d="M50.92,22.9l0,0,.6-1.09a.64.64,0,0,0-.25-.85l-.36-.19.67-1.22a.62.62,0,0,0-.25-.84.56.56,0,0,0-.3-.08.61.61,0,0,0-.54.33l-.67,1.22L49.6,20a.66.66,0,0,0-.3-.07.65.65,0,0,0-.55.32L44,29.12v0h0l2.73,1.48,3.5-6.45a3,3,0,0,1,.08,2.6l-3,5.46a.63.63,0,0,0,.25.85.63.63,0,0,0,.84-.25l3-5.47C52.48,25.28,51,23,50.92,22.9Z"/><path class="cls-2" d="M43.36,30.21l-.53,1-3.44,6.33h0a17.07,17.07,0,0,0-1.35,5l-.36.09-.22.06-.58.15a9.83,9.83,0,0,1-2.23.32c-1,0-1.58-.34-1.59-1a1.58,1.58,0,0,1,.11-.41c.11-.32.25-.7,0-1a.49.49,0,0,0-.38-.14,2.11,2.11,0,0,0-.79.22A8.93,8.93,0,0,0,30.28,42a6.15,6.15,0,0,0-.49.45c-.52.48-1.16,1.09-1.71,1.13-.19,0-.25-.06-.28-.1s-.13-.66,1-2.47l0-.07a1.55,1.55,0,0,1,.14-.2c.72-1,1.12-1.76.76-2.06a.68.68,0,0,0-.44-.14,6.22,6.22,0,0,0-2.42,1.08l-.06.05-.1.06c-.87.53-1.68,1.15-2.47,1.74-.59.44-1.2.89-1.82,1.31a2.17,2.17,0,0,1-1.11.48c-.21,0-.32-.11-.35-.37a1.57,1.57,0,0,1,.45-1.17,2.9,2.9,0,0,1,1.68-1.06c.21,0,.71-.38.7-.6s-.06-.17-.21-.17h0a4.5,4.5,0,0,0-3.3,2.41,1.23,1.23,0,0,0-.15,1.26A1,1,0,0,0,21,44a2,2,0,0,0,.83-.2A16.07,16.07,0,0,0,25,41.75l0,0c.52-.4,1.06-.82,1.59-1.19a10.19,10.19,0,0,1,2.32-1.12,2.52,2.52,0,0,1-.56,1.07l0,0c-.06.1-.12.18-.17.25s-.15.23-.24.37l-.06.08c-.55.8-1.3,1.91-1,2.77a.63.63,0,0,0,.63.45,4.82,4.82,0,0,0,2.44-1.35L30,43a7.45,7.45,0,0,1,2.33-1.53h0s0,0,0,0a3.38,3.38,0,0,1-.11.57,1.18,1.18,0,0,0,.35,1.41,2.6,2.6,0,0,0,1.71.5,9,9,0,0,0,2.53-.45l.58-.18.09,0,.1,0,.38-.14A17.35,17.35,0,0,0,42.12,39h0l.7-1.3,1.12-2,2.14-3.94L44,30.54Z"/></g></svg>